<?xml version="1.0" encoding="UTF-8" standalone="no"?>
<svg
   xmlns:dc="http://purl.org/dc/elements/1.1/"
   xmlns:cc="http://creativecommons.org/ns#"
   xmlns:rdf="http://www.w3.org/1999/02/22-rdf-syntax-ns#"
   xmlns:svg="http://www.w3.org/2000/svg"
   xmlns="http://www.w3.org/2000/svg"
   viewBox="0 0 1333.3333 1333.3333"
   height="1333.3333"
   width="1333.3333"
   xml:space="preserve"
   id="svg2"
   version="1.1"><metadata
     id="metadata8"><rdf:RDF><cc:Work
         rdf:about=""><dc:format>image/svg+xml</dc:format><dc:type
           rdf:resource="http://purl.org/dc/dcmitype/StillImage" /></cc:Work></rdf:RDF></metadata><defs
     id="defs6"><clipPath
       id="clipPath18"
       clipPathUnits="userSpaceOnUse"><path
         id="path16"
         d="M 0,1000 H 1000 V 0 H 0 Z" /></clipPath></defs><g
     transform="matrix(1.3333333,0,0,-1.3333333,0,1333.3333)"
     id="g10"><g
       id="g12"><g
         clip-path="url(#clipPath18)"
         id="g14"><g
           transform="translate(399.5951,412.757)"
           id="g20"><path
             id="path22"
             style="fill:none;stroke:#373535;stroke-width:40;stroke-linecap:butt;stroke-linejoin:miter;stroke-miterlimit:10;stroke-dasharray:none;stroke-opacity:1"
             d="m 0,0 v -135.486 c 0,-49.884 -40.439,-90.324 -90.324,-90.324 v 0 45.162 90.324 C -90.324,-40.439 -49.885,0 0,0 h 135.486 c 99.769,0 180.648,80.879 180.648,180.648 v 0 c 0,99.769 -80.879,180.648 -180.648,180.648 H -90.324 V 180.648 c 0,-49.885 40.439,-90.324 90.324,-90.324 h 135.486 c 49.884,0 90.324,40.439 90.324,90.324 v 0 c 0,49.884 -40.44,90.324 -90.324,90.324 H 0 V 90.324" /></g></g></g></g></svg>