<svg xmlns="http://www.w3.org/2000/svg" width="796" height="1170" viewBox="0 0 796 1170" version="1.1"><path d="M 475.422 661.250 C 479.178 674.151, 480 679.136, 480 689 C 480 706.166, 478.347 711.062, 460.670 746.235 L 445.224 776.971 487.862 798.616 C 583.374 847.101, 599.645 855.115, 605.460 856.540 C 613.163 858.427, 625.980 858.405, 633.540 856.491 C 654.706 851.134, 672.647 833.327, 677.463 812.897 C 682.904 789.812, 673.737 764.173, 655.222 750.691 C 650.945 747.577, 477.366 659, 475.541 659 C 475.115 659, 475.061 660.013, 475.422 661.250" stroke="none" fill="#016bab" fill-rule="evenodd"/><path d="M 394.772 630.541 C 391.071 631.372, 386.006 632.926, 383.515 633.994 C 373.105 638.456, 360.707 649.189, 353.098 660.325 C 348.681 666.788, 243.743 878.371, 241.029 886.284 C 234.035 906.675, 239.774 930.783, 255.342 946.414 C 267.308 958.428, 280.740 963.955, 298.040 963.985 C 315.047 964.015, 327.408 958.833, 339.514 946.599 L 347.529 938.500 398.667 837.500 C 463.636 709.184, 462.521 711.435, 464.601 704.417 C 465.763 700.497, 466.353 695.125, 466.351 688.500 C 466.348 679.982, 465.905 677.233, 463.364 669.956 C 456.864 651.342, 443.694 638.252, 425.249 632.072 C 416.848 629.258, 403.474 628.586, 394.772 630.541" stroke="none" fill="#175729" fill-rule="evenodd"/><path d="M 326.202 418.022 C 315.885 420.725, 307.553 425.473, 299.918 433 C 291.991 440.815, 286.693 449.970, 283.997 460.511 C 276.105 491.369, 293.220 522.226, 324 532.633 C 331.769 535.260, 351.257 535.255, 359 532.624 C 373.694 527.632, 387.316 516.543, 393.780 504.314 C 400.788 491.053, 402.704 474.984, 399.003 460.511 C 390.894 428.805, 358.099 409.665, 326.202 418.022" stroke="none" fill="#dc672b" fill-rule="evenodd"/><path d="M 528.052 494.137 C 525.056 494.634, 511.781 498.605, 498.552 502.962 C 485.323 507.318, 411.050 531.626, 333.500 556.979 C 255.950 582.332, 189.169 604.691, 185.098 606.667 C 170.736 613.637, 158.254 629.336, 154.537 645.103 C 145.333 684.152, 175.920 721.088, 215.505 718.727 C 223.700 718.238, 228.777 716.802, 271.012 703.026 C 305.156 691.890, 317.996 687.284, 319.366 685.682 C 320.393 684.482, 324.613 676.750, 328.744 668.500 C 339.659 646.704, 345.441 639.076, 357.660 630.352 C 371.612 620.389, 386.460 615.662, 403.500 615.757 C 418.867 615.844, 425.945 617.965, 448.603 629.277 L 467.500 638.710 515.203 623.006 C 547.489 612.377, 564.730 606.202, 568.551 603.901 C 571.655 602.030, 577.073 597.457, 580.591 593.738 C 597.974 575.361, 601.892 549.447, 590.793 526.255 C 588.487 521.436, 585.259 517.180, 579.530 511.406 C 569.868 501.668, 560.683 496.666, 548.464 494.489 C 539.519 492.895, 535.917 492.833, 528.052 494.137" stroke="none" fill="#f60000" fill-rule="evenodd"/><path d="M 416.500 0.693 C 414.300 0.890, 407.749 1.936, 401.943 3.018 C 357.176 11.364, 317.432 39.190, 294.049 78.558 C 291.417 82.990, 249.423 167.140, 200.731 265.558 C 118.291 432.185, 41.790 591.181, 29.468 621.500 C 15.937 654.793, 7.024 689.797, 2.350 728 C -0.112 748.124, -0.117 794.452, 2.341 815.315 C 11.478 892.868, 40.729 963.275, 88.804 1023.432 C 100.545 1038.123, 126.368 1064.633, 141.167 1077.187 C 190.904 1119.379, 252.673 1149.276, 316 1161.808 C 414.699 1181.341, 518.119 1163.238, 602.301 1111.692 C 665.856 1072.776, 719.129 1014.562, 753.014 947 C 773.796 905.562, 788.579 856.413, 793.468 812.500 C 794.325 804.800, 795.471 795.998, 796.013 792.940 C 798.040 781.517, 796.607 735.094, 793.452 710 C 790.475 686.325, 784.807 660.893, 777.292 637.500 C 767.859 608.138, 584.445 99.474, 580.055 90.500 C 552.455 34.090, 494.957 -0.824, 431.289 0.168 C 425.355 0.261, 418.700 0.497, 416.500 0.693 M 420.500 95.398 C 402.357 98.905, 386.692 109.197, 376.813 124.102 C 370.280 133.958, 205.475 468.107, 165.277 553 C 143.531 598.925, 123.719 641, 121.251 646.500 C 100.888 691.877, 91.524 743.318, 94.949 791 C 98.026 833.846, 108.228 871.449, 126.975 909.040 C 174.135 1003.607, 261.768 1064.261, 365.478 1074.114 C 383.149 1075.793, 423.004 1074.717, 440.004 1072.101 C 543.947 1056.111, 629.813 990.257, 674.952 891.912 C 687.472 864.635, 696.039 834.609, 700.640 801.888 C 703.084 784.501, 703.118 742.450, 700.702 725 C 697.836 704.298, 693.501 684.499, 688.332 668.500 C 680.186 643.288, 498.214 138.049, 494.741 131 C 488.833 119.012, 477.817 107.969, 465.988 102.176 C 461.319 99.890, 454.800 97.328, 451.500 96.483 C 442.911 94.282, 428.823 93.789, 420.500 95.398 M 0.420 771.500 C 0.419 782.500, 0.565 787.136, 0.745 781.803 C 0.924 776.470, 0.925 767.470, 0.746 761.803 C 0.568 756.136, 0.421 760.500, 0.420 771.500" stroke="none" fill="#f59200" fill-rule="evenodd"/></svg>